# xmcd
#
# Track frame offsets:
#	150
#	12936
#	34949
#	59943
#	76959
#	95160
#	113904
#	135662
#	151523
#	169614
#	184064
#	206202
#	218968
#	242053
#	262364
#	281365
#	286838
#	292062
#	296643
#	300071
#	304135
#
# Disc length: 4134 seconds
#
# Revision: 0
# Processed by: cddbd v1.5.2PL0 Copyright (c) Steve Scherf et al.
# Submitted via: dBpowerAMP V4.0
#
DISCID=3f102415
DTITLE=The Wicked Streets of Chi - The First Episode
DYEAR=1999
DGENRE=Gangsta rap
TTITLE0=Loyalty(Part 2)-The Legendary Traxster
TTITLE1=Tha Biggest Newsense-Newsense of Psychodrama
TTITLE2=The Wicked Streets of Chi-Triple Darkness
TTITLE3=My Mutha Fukas Murda-Co-Still
TTITLE4=Slangin Trees-Los Marijuanos
TTITLE5=Slowley But Surely-D.A. Smart
TTITLE6=Dont Come Round Here-Big G.O.I.
TTITLE7=Gettin It ON-E.Cilla aka White Folks
TTITLE8=What U Is-Mob Axshin
TTITLE9=City Of Gangsta Nostra-The Dinner Thieves
TTITLE10=Suicide-Twista
TTITLE11=Chasin A Buck-D.Villa The Dutchess
TTITLE12=Dead Boy's-Quarta Ounce
TTITLE13=Born Bitch-D.Villa F/Newsense
TTITLE14=Diamonz-Qualoheem
TTITLE15=Bonus Sampler
TTITLE16=Bonus Sampler
TTITLE17=Bonus Sampler
TTITLE18=Bonus Sampler
TTITLE19=Bonus Sampler
TTITLE20=Bonus Sampler
EXTD=
EXTT0=
EXTT1=
EXTT2=
EXTT3=
EXTT4=
EXTT5=
EXTT6=
EXTT7=
EXTT8=
EXTT9=
EXTT10=
EXTT11=
EXTT12=
EXTT13=
EXTT14=
EXTT15=
EXTT16=
EXTT17=
EXTT18=
EXTT19=
EXTT20=
PLAYORDER=
